%TF.GenerationSoftware,KiCad,Pcbnew,7.0.1*%
%TF.CreationDate,2024-04-02T19:32:24+05:30*%
%TF.ProjectId,SAMD11_DRV8825_NEM17,53414d44-3131-45f4-9452-56383832355f,rev?*%
%TF.SameCoordinates,Original*%
%TF.FileFunction,Legend,Top*%
%TF.FilePolarity,Positive*%
%FSLAX46Y46*%
G04 Gerber Fmt 4.6, Leading zero omitted, Abs format (unit mm)*
G04 Created by KiCad (PCBNEW 7.0.1) date 2024-04-02 19:32:24*
%MOMM*%
%LPD*%
G01*
G04 APERTURE LIST*
%ADD10C,0.150000*%
%ADD11C,0.120000*%
G04 APERTURE END LIST*
D10*
%TO.C,C4*%
X187804380Y-80462666D02*
X187852000Y-80510285D01*
X187852000Y-80510285D02*
X187899619Y-80653142D01*
X187899619Y-80653142D02*
X187899619Y-80748380D01*
X187899619Y-80748380D02*
X187852000Y-80891237D01*
X187852000Y-80891237D02*
X187756761Y-80986475D01*
X187756761Y-80986475D02*
X187661523Y-81034094D01*
X187661523Y-81034094D02*
X187471047Y-81081713D01*
X187471047Y-81081713D02*
X187328190Y-81081713D01*
X187328190Y-81081713D02*
X187137714Y-81034094D01*
X187137714Y-81034094D02*
X187042476Y-80986475D01*
X187042476Y-80986475D02*
X186947238Y-80891237D01*
X186947238Y-80891237D02*
X186899619Y-80748380D01*
X186899619Y-80748380D02*
X186899619Y-80653142D01*
X186899619Y-80653142D02*
X186947238Y-80510285D01*
X186947238Y-80510285D02*
X186994857Y-80462666D01*
X187232952Y-79605523D02*
X187899619Y-79605523D01*
X186852000Y-79843618D02*
X187566285Y-80081713D01*
X187566285Y-80081713D02*
X187566285Y-79462666D01*
%TO.C,D1*%
X204493905Y-87400619D02*
X204493905Y-86400619D01*
X204493905Y-86400619D02*
X204732000Y-86400619D01*
X204732000Y-86400619D02*
X204874857Y-86448238D01*
X204874857Y-86448238D02*
X204970095Y-86543476D01*
X204970095Y-86543476D02*
X205017714Y-86638714D01*
X205017714Y-86638714D02*
X205065333Y-86829190D01*
X205065333Y-86829190D02*
X205065333Y-86972047D01*
X205065333Y-86972047D02*
X205017714Y-87162523D01*
X205017714Y-87162523D02*
X204970095Y-87257761D01*
X204970095Y-87257761D02*
X204874857Y-87353000D01*
X204874857Y-87353000D02*
X204732000Y-87400619D01*
X204732000Y-87400619D02*
X204493905Y-87400619D01*
X206017714Y-87400619D02*
X205446286Y-87400619D01*
X205732000Y-87400619D02*
X205732000Y-86400619D01*
X205732000Y-86400619D02*
X205636762Y-86543476D01*
X205636762Y-86543476D02*
X205541524Y-86638714D01*
X205541524Y-86638714D02*
X205446286Y-86686333D01*
%TO.C,C3*%
X187070133Y-92117880D02*
X187022514Y-92165500D01*
X187022514Y-92165500D02*
X186879657Y-92213119D01*
X186879657Y-92213119D02*
X186784419Y-92213119D01*
X186784419Y-92213119D02*
X186641562Y-92165500D01*
X186641562Y-92165500D02*
X186546324Y-92070261D01*
X186546324Y-92070261D02*
X186498705Y-91975023D01*
X186498705Y-91975023D02*
X186451086Y-91784547D01*
X186451086Y-91784547D02*
X186451086Y-91641690D01*
X186451086Y-91641690D02*
X186498705Y-91451214D01*
X186498705Y-91451214D02*
X186546324Y-91355976D01*
X186546324Y-91355976D02*
X186641562Y-91260738D01*
X186641562Y-91260738D02*
X186784419Y-91213119D01*
X186784419Y-91213119D02*
X186879657Y-91213119D01*
X186879657Y-91213119D02*
X187022514Y-91260738D01*
X187022514Y-91260738D02*
X187070133Y-91308357D01*
X187403467Y-91213119D02*
X188022514Y-91213119D01*
X188022514Y-91213119D02*
X187689181Y-91594071D01*
X187689181Y-91594071D02*
X187832038Y-91594071D01*
X187832038Y-91594071D02*
X187927276Y-91641690D01*
X187927276Y-91641690D02*
X187974895Y-91689309D01*
X187974895Y-91689309D02*
X188022514Y-91784547D01*
X188022514Y-91784547D02*
X188022514Y-92022642D01*
X188022514Y-92022642D02*
X187974895Y-92117880D01*
X187974895Y-92117880D02*
X187927276Y-92165500D01*
X187927276Y-92165500D02*
X187832038Y-92213119D01*
X187832038Y-92213119D02*
X187546324Y-92213119D01*
X187546324Y-92213119D02*
X187451086Y-92165500D01*
X187451086Y-92165500D02*
X187403467Y-92117880D01*
%TO.C,J4*%
X192059809Y-95347619D02*
X192059809Y-96061904D01*
X192059809Y-96061904D02*
X192012190Y-96204761D01*
X192012190Y-96204761D02*
X191916952Y-96300000D01*
X191916952Y-96300000D02*
X191774095Y-96347619D01*
X191774095Y-96347619D02*
X191678857Y-96347619D01*
X192964571Y-95680952D02*
X192964571Y-96347619D01*
X192726476Y-95300000D02*
X192488381Y-96014285D01*
X192488381Y-96014285D02*
X193107428Y-96014285D01*
%TO.C,D2*%
X180309619Y-64238094D02*
X179309619Y-64238094D01*
X179309619Y-64238094D02*
X179309619Y-63999999D01*
X179309619Y-63999999D02*
X179357238Y-63857142D01*
X179357238Y-63857142D02*
X179452476Y-63761904D01*
X179452476Y-63761904D02*
X179547714Y-63714285D01*
X179547714Y-63714285D02*
X179738190Y-63666666D01*
X179738190Y-63666666D02*
X179881047Y-63666666D01*
X179881047Y-63666666D02*
X180071523Y-63714285D01*
X180071523Y-63714285D02*
X180166761Y-63761904D01*
X180166761Y-63761904D02*
X180262000Y-63857142D01*
X180262000Y-63857142D02*
X180309619Y-63999999D01*
X180309619Y-63999999D02*
X180309619Y-64238094D01*
X179404857Y-63285713D02*
X179357238Y-63238094D01*
X179357238Y-63238094D02*
X179309619Y-63142856D01*
X179309619Y-63142856D02*
X179309619Y-62904761D01*
X179309619Y-62904761D02*
X179357238Y-62809523D01*
X179357238Y-62809523D02*
X179404857Y-62761904D01*
X179404857Y-62761904D02*
X179500095Y-62714285D01*
X179500095Y-62714285D02*
X179595333Y-62714285D01*
X179595333Y-62714285D02*
X179738190Y-62761904D01*
X179738190Y-62761904D02*
X180309619Y-63333332D01*
X180309619Y-63333332D02*
X180309619Y-62714285D01*
%TO.C,U1*%
X201934595Y-83601419D02*
X201934595Y-84410942D01*
X201934595Y-84410942D02*
X201982214Y-84506180D01*
X201982214Y-84506180D02*
X202029833Y-84553800D01*
X202029833Y-84553800D02*
X202125071Y-84601419D01*
X202125071Y-84601419D02*
X202315547Y-84601419D01*
X202315547Y-84601419D02*
X202410785Y-84553800D01*
X202410785Y-84553800D02*
X202458404Y-84506180D01*
X202458404Y-84506180D02*
X202506023Y-84410942D01*
X202506023Y-84410942D02*
X202506023Y-83601419D01*
X203506023Y-84601419D02*
X202934595Y-84601419D01*
X203220309Y-84601419D02*
X203220309Y-83601419D01*
X203220309Y-83601419D02*
X203125071Y-83744276D01*
X203125071Y-83744276D02*
X203029833Y-83839514D01*
X203029833Y-83839514D02*
X202934595Y-83887133D01*
%TO.C,C2*%
X177633333Y-76567380D02*
X177585714Y-76615000D01*
X177585714Y-76615000D02*
X177442857Y-76662619D01*
X177442857Y-76662619D02*
X177347619Y-76662619D01*
X177347619Y-76662619D02*
X177204762Y-76615000D01*
X177204762Y-76615000D02*
X177109524Y-76519761D01*
X177109524Y-76519761D02*
X177061905Y-76424523D01*
X177061905Y-76424523D02*
X177014286Y-76234047D01*
X177014286Y-76234047D02*
X177014286Y-76091190D01*
X177014286Y-76091190D02*
X177061905Y-75900714D01*
X177061905Y-75900714D02*
X177109524Y-75805476D01*
X177109524Y-75805476D02*
X177204762Y-75710238D01*
X177204762Y-75710238D02*
X177347619Y-75662619D01*
X177347619Y-75662619D02*
X177442857Y-75662619D01*
X177442857Y-75662619D02*
X177585714Y-75710238D01*
X177585714Y-75710238D02*
X177633333Y-75757857D01*
X178014286Y-75757857D02*
X178061905Y-75710238D01*
X178061905Y-75710238D02*
X178157143Y-75662619D01*
X178157143Y-75662619D02*
X178395238Y-75662619D01*
X178395238Y-75662619D02*
X178490476Y-75710238D01*
X178490476Y-75710238D02*
X178538095Y-75757857D01*
X178538095Y-75757857D02*
X178585714Y-75853095D01*
X178585714Y-75853095D02*
X178585714Y-75948333D01*
X178585714Y-75948333D02*
X178538095Y-76091190D01*
X178538095Y-76091190D02*
X177966667Y-76662619D01*
X177966667Y-76662619D02*
X178585714Y-76662619D01*
%TO.C,U2*%
X174144619Y-72516904D02*
X174954142Y-72516904D01*
X174954142Y-72516904D02*
X175049380Y-72469285D01*
X175049380Y-72469285D02*
X175097000Y-72421666D01*
X175097000Y-72421666D02*
X175144619Y-72326428D01*
X175144619Y-72326428D02*
X175144619Y-72135952D01*
X175144619Y-72135952D02*
X175097000Y-72040714D01*
X175097000Y-72040714D02*
X175049380Y-71993095D01*
X175049380Y-71993095D02*
X174954142Y-71945476D01*
X174954142Y-71945476D02*
X174144619Y-71945476D01*
X174239857Y-71516904D02*
X174192238Y-71469285D01*
X174192238Y-71469285D02*
X174144619Y-71374047D01*
X174144619Y-71374047D02*
X174144619Y-71135952D01*
X174144619Y-71135952D02*
X174192238Y-71040714D01*
X174192238Y-71040714D02*
X174239857Y-70993095D01*
X174239857Y-70993095D02*
X174335095Y-70945476D01*
X174335095Y-70945476D02*
X174430333Y-70945476D01*
X174430333Y-70945476D02*
X174573190Y-70993095D01*
X174573190Y-70993095D02*
X175144619Y-71564523D01*
X175144619Y-71564523D02*
X175144619Y-70945476D01*
%TO.C,JP4*%
X173045333Y-77626380D02*
X173045333Y-76912095D01*
X173045333Y-76912095D02*
X173092952Y-76769238D01*
X173092952Y-76769238D02*
X173188190Y-76674000D01*
X173188190Y-76674000D02*
X173331047Y-76626380D01*
X173331047Y-76626380D02*
X173426285Y-76626380D01*
X172569142Y-76626380D02*
X172569142Y-77626380D01*
X172569142Y-77626380D02*
X172188190Y-77626380D01*
X172188190Y-77626380D02*
X172092952Y-77578761D01*
X172092952Y-77578761D02*
X172045333Y-77531142D01*
X172045333Y-77531142D02*
X171997714Y-77435904D01*
X171997714Y-77435904D02*
X171997714Y-77293047D01*
X171997714Y-77293047D02*
X172045333Y-77197809D01*
X172045333Y-77197809D02*
X172092952Y-77150190D01*
X172092952Y-77150190D02*
X172188190Y-77102571D01*
X172188190Y-77102571D02*
X172569142Y-77102571D01*
X171140571Y-77293047D02*
X171140571Y-76626380D01*
X171378666Y-77674000D02*
X171616761Y-76959714D01*
X171616761Y-76959714D02*
X170997714Y-76959714D01*
%TO.C,R2*%
X171867819Y-69931966D02*
X171391628Y-70265299D01*
X171867819Y-70503394D02*
X170867819Y-70503394D01*
X170867819Y-70503394D02*
X170867819Y-70122442D01*
X170867819Y-70122442D02*
X170915438Y-70027204D01*
X170915438Y-70027204D02*
X170963057Y-69979585D01*
X170963057Y-69979585D02*
X171058295Y-69931966D01*
X171058295Y-69931966D02*
X171201152Y-69931966D01*
X171201152Y-69931966D02*
X171296390Y-69979585D01*
X171296390Y-69979585D02*
X171344009Y-70027204D01*
X171344009Y-70027204D02*
X171391628Y-70122442D01*
X171391628Y-70122442D02*
X171391628Y-70503394D01*
X170963057Y-69551013D02*
X170915438Y-69503394D01*
X170915438Y-69503394D02*
X170867819Y-69408156D01*
X170867819Y-69408156D02*
X170867819Y-69170061D01*
X170867819Y-69170061D02*
X170915438Y-69074823D01*
X170915438Y-69074823D02*
X170963057Y-69027204D01*
X170963057Y-69027204D02*
X171058295Y-68979585D01*
X171058295Y-68979585D02*
X171153533Y-68979585D01*
X171153533Y-68979585D02*
X171296390Y-69027204D01*
X171296390Y-69027204D02*
X171867819Y-69598632D01*
X171867819Y-69598632D02*
X171867819Y-68979585D01*
%TO.C,C1*%
X176743333Y-69582380D02*
X176695714Y-69630000D01*
X176695714Y-69630000D02*
X176552857Y-69677619D01*
X176552857Y-69677619D02*
X176457619Y-69677619D01*
X176457619Y-69677619D02*
X176314762Y-69630000D01*
X176314762Y-69630000D02*
X176219524Y-69534761D01*
X176219524Y-69534761D02*
X176171905Y-69439523D01*
X176171905Y-69439523D02*
X176124286Y-69249047D01*
X176124286Y-69249047D02*
X176124286Y-69106190D01*
X176124286Y-69106190D02*
X176171905Y-68915714D01*
X176171905Y-68915714D02*
X176219524Y-68820476D01*
X176219524Y-68820476D02*
X176314762Y-68725238D01*
X176314762Y-68725238D02*
X176457619Y-68677619D01*
X176457619Y-68677619D02*
X176552857Y-68677619D01*
X176552857Y-68677619D02*
X176695714Y-68725238D01*
X176695714Y-68725238D02*
X176743333Y-68772857D01*
X177695714Y-69677619D02*
X177124286Y-69677619D01*
X177410000Y-69677619D02*
X177410000Y-68677619D01*
X177410000Y-68677619D02*
X177314762Y-68820476D01*
X177314762Y-68820476D02*
X177219524Y-68915714D01*
X177219524Y-68915714D02*
X177124286Y-68963333D01*
%TO.C,R1*%
X207097333Y-73692719D02*
X206764000Y-73216528D01*
X206525905Y-73692719D02*
X206525905Y-72692719D01*
X206525905Y-72692719D02*
X206906857Y-72692719D01*
X206906857Y-72692719D02*
X207002095Y-72740338D01*
X207002095Y-72740338D02*
X207049714Y-72787957D01*
X207049714Y-72787957D02*
X207097333Y-72883195D01*
X207097333Y-72883195D02*
X207097333Y-73026052D01*
X207097333Y-73026052D02*
X207049714Y-73121290D01*
X207049714Y-73121290D02*
X207002095Y-73168909D01*
X207002095Y-73168909D02*
X206906857Y-73216528D01*
X206906857Y-73216528D02*
X206525905Y-73216528D01*
X208049714Y-73692719D02*
X207478286Y-73692719D01*
X207764000Y-73692719D02*
X207764000Y-72692719D01*
X207764000Y-72692719D02*
X207668762Y-72835576D01*
X207668762Y-72835576D02*
X207573524Y-72930814D01*
X207573524Y-72930814D02*
X207478286Y-72978433D01*
%TO.C,JP2*%
X200827658Y-88858278D02*
X200827658Y-89572563D01*
X200827658Y-89572563D02*
X200780039Y-89715420D01*
X200780039Y-89715420D02*
X200684801Y-89810659D01*
X200684801Y-89810659D02*
X200541944Y-89858278D01*
X200541944Y-89858278D02*
X200446706Y-89858278D01*
X201303849Y-89858278D02*
X201303849Y-88858278D01*
X201303849Y-88858278D02*
X201684801Y-88858278D01*
X201684801Y-88858278D02*
X201780039Y-88905897D01*
X201780039Y-88905897D02*
X201827658Y-88953516D01*
X201827658Y-88953516D02*
X201875277Y-89048754D01*
X201875277Y-89048754D02*
X201875277Y-89191611D01*
X201875277Y-89191611D02*
X201827658Y-89286849D01*
X201827658Y-89286849D02*
X201780039Y-89334468D01*
X201780039Y-89334468D02*
X201684801Y-89382087D01*
X201684801Y-89382087D02*
X201303849Y-89382087D01*
X202256230Y-88953516D02*
X202303849Y-88905897D01*
X202303849Y-88905897D02*
X202399087Y-88858278D01*
X202399087Y-88858278D02*
X202637182Y-88858278D01*
X202637182Y-88858278D02*
X202732420Y-88905897D01*
X202732420Y-88905897D02*
X202780039Y-88953516D01*
X202780039Y-88953516D02*
X202827658Y-89048754D01*
X202827658Y-89048754D02*
X202827658Y-89143992D01*
X202827658Y-89143992D02*
X202780039Y-89286849D01*
X202780039Y-89286849D02*
X202208611Y-89858278D01*
X202208611Y-89858278D02*
X202827658Y-89858278D01*
%TO.C,A1*%
X187071014Y-87734104D02*
X187547204Y-87734104D01*
X186975776Y-88019819D02*
X187309109Y-87019819D01*
X187309109Y-87019819D02*
X187642442Y-88019819D01*
X188499585Y-88019819D02*
X187928157Y-88019819D01*
X188213871Y-88019819D02*
X188213871Y-87019819D01*
X188213871Y-87019819D02*
X188118633Y-87162676D01*
X188118633Y-87162676D02*
X188023395Y-87257914D01*
X188023395Y-87257914D02*
X187928157Y-87305533D01*
%TO.C,JP1*%
X197794666Y-95804319D02*
X197794666Y-96518604D01*
X197794666Y-96518604D02*
X197747047Y-96661461D01*
X197747047Y-96661461D02*
X197651809Y-96756700D01*
X197651809Y-96756700D02*
X197508952Y-96804319D01*
X197508952Y-96804319D02*
X197413714Y-96804319D01*
X198270857Y-96804319D02*
X198270857Y-95804319D01*
X198270857Y-95804319D02*
X198651809Y-95804319D01*
X198651809Y-95804319D02*
X198747047Y-95851938D01*
X198747047Y-95851938D02*
X198794666Y-95899557D01*
X198794666Y-95899557D02*
X198842285Y-95994795D01*
X198842285Y-95994795D02*
X198842285Y-96137652D01*
X198842285Y-96137652D02*
X198794666Y-96232890D01*
X198794666Y-96232890D02*
X198747047Y-96280509D01*
X198747047Y-96280509D02*
X198651809Y-96328128D01*
X198651809Y-96328128D02*
X198270857Y-96328128D01*
X199794666Y-96804319D02*
X199223238Y-96804319D01*
X199508952Y-96804319D02*
X199508952Y-95804319D01*
X199508952Y-95804319D02*
X199413714Y-95947176D01*
X199413714Y-95947176D02*
X199318476Y-96042414D01*
X199318476Y-96042414D02*
X199223238Y-96090033D01*
%TO.C,JP3*%
X195550619Y-92730033D02*
X196264904Y-92730033D01*
X196264904Y-92730033D02*
X196407761Y-92777652D01*
X196407761Y-92777652D02*
X196503000Y-92872890D01*
X196503000Y-92872890D02*
X196550619Y-93015747D01*
X196550619Y-93015747D02*
X196550619Y-93110985D01*
X196550619Y-92253842D02*
X195550619Y-92253842D01*
X195550619Y-92253842D02*
X195550619Y-91872890D01*
X195550619Y-91872890D02*
X195598238Y-91777652D01*
X195598238Y-91777652D02*
X195645857Y-91730033D01*
X195645857Y-91730033D02*
X195741095Y-91682414D01*
X195741095Y-91682414D02*
X195883952Y-91682414D01*
X195883952Y-91682414D02*
X195979190Y-91730033D01*
X195979190Y-91730033D02*
X196026809Y-91777652D01*
X196026809Y-91777652D02*
X196074428Y-91872890D01*
X196074428Y-91872890D02*
X196074428Y-92253842D01*
X195550619Y-91349080D02*
X195550619Y-90730033D01*
X195550619Y-90730033D02*
X195931571Y-91063366D01*
X195931571Y-91063366D02*
X195931571Y-90920509D01*
X195931571Y-90920509D02*
X195979190Y-90825271D01*
X195979190Y-90825271D02*
X196026809Y-90777652D01*
X196026809Y-90777652D02*
X196122047Y-90730033D01*
X196122047Y-90730033D02*
X196360142Y-90730033D01*
X196360142Y-90730033D02*
X196455380Y-90777652D01*
X196455380Y-90777652D02*
X196503000Y-90825271D01*
X196503000Y-90825271D02*
X196550619Y-90920509D01*
X196550619Y-90920509D02*
X196550619Y-91206223D01*
X196550619Y-91206223D02*
X196503000Y-91301461D01*
X196503000Y-91301461D02*
X196455380Y-91349080D01*
%TO.C,J1*%
X202457266Y-65953419D02*
X202457266Y-66667704D01*
X202457266Y-66667704D02*
X202409647Y-66810561D01*
X202409647Y-66810561D02*
X202314409Y-66905800D01*
X202314409Y-66905800D02*
X202171552Y-66953419D01*
X202171552Y-66953419D02*
X202076314Y-66953419D01*
X203457266Y-66953419D02*
X202885838Y-66953419D01*
X203171552Y-66953419D02*
X203171552Y-65953419D01*
X203171552Y-65953419D02*
X203076314Y-66096276D01*
X203076314Y-66096276D02*
X202981076Y-66191514D01*
X202981076Y-66191514D02*
X202885838Y-66239133D01*
%TO.C,J3*%
X177067809Y-90892619D02*
X177067809Y-91606904D01*
X177067809Y-91606904D02*
X177020190Y-91749761D01*
X177020190Y-91749761D02*
X176924952Y-91845000D01*
X176924952Y-91845000D02*
X176782095Y-91892619D01*
X176782095Y-91892619D02*
X176686857Y-91892619D01*
X177448762Y-90892619D02*
X178067809Y-90892619D01*
X178067809Y-90892619D02*
X177734476Y-91273571D01*
X177734476Y-91273571D02*
X177877333Y-91273571D01*
X177877333Y-91273571D02*
X177972571Y-91321190D01*
X177972571Y-91321190D02*
X178020190Y-91368809D01*
X178020190Y-91368809D02*
X178067809Y-91464047D01*
X178067809Y-91464047D02*
X178067809Y-91702142D01*
X178067809Y-91702142D02*
X178020190Y-91797380D01*
X178020190Y-91797380D02*
X177972571Y-91845000D01*
X177972571Y-91845000D02*
X177877333Y-91892619D01*
X177877333Y-91892619D02*
X177591619Y-91892619D01*
X177591619Y-91892619D02*
X177496381Y-91845000D01*
X177496381Y-91845000D02*
X177448762Y-91797380D01*
D11*
%TO.C,C4*%
X186382000Y-81296000D02*
X186382000Y-79296000D01*
X188522000Y-79296000D02*
X188522000Y-81296000D01*
%TO.C,D1*%
X202132000Y-85918000D02*
X202132000Y-87818000D01*
X202132000Y-85918000D02*
X206832000Y-85918000D01*
X202132000Y-87818000D02*
X206832000Y-87818000D01*
%TO.C,C3*%
X188236800Y-92895500D02*
X186236800Y-92895500D01*
X186236800Y-90755500D02*
X188236800Y-90755500D01*
%TO.C,J4*%
X190246000Y-93585000D02*
X190246000Y-94855000D01*
X190246000Y-98665000D02*
X190246000Y-101205000D01*
X189230000Y-98665000D02*
X189230000Y-96125000D01*
X188722000Y-98665000D02*
X188722000Y-96125000D01*
X186690000Y-98665000D02*
X186690000Y-96125000D01*
X186182000Y-98665000D02*
X186182000Y-96125000D01*
X185166000Y-98665000D02*
X190246000Y-98665000D01*
X190246000Y-101205000D02*
X185166000Y-101205000D01*
X185166000Y-101205000D02*
X185166000Y-98665000D01*
%TO.C,D2*%
X180782000Y-60400000D02*
X178882000Y-60400000D01*
X180782000Y-60400000D02*
X180782000Y-65100000D01*
X178882000Y-60400000D02*
X178882000Y-65100000D01*
%TO.C,U1*%
X202696500Y-83373800D02*
X206146500Y-83373800D01*
X202696500Y-83373800D02*
X200746500Y-83373800D01*
X202696500Y-74503800D02*
X204646500Y-74503800D01*
X202696500Y-74503800D02*
X200746500Y-74503800D01*
X206096500Y-83838800D02*
G75*
G03*
X206096500Y-83838800I-200000J0D01*
G01*
%TO.C,C2*%
X178800000Y-77270000D02*
X176800000Y-77270000D01*
X176800000Y-75130000D02*
X178800000Y-75130000D01*
%TO.C,U2*%
X176532000Y-74290000D02*
X178692000Y-74290000D01*
X176532000Y-74290000D02*
X176532000Y-73360000D01*
X176532000Y-71130000D02*
X177992000Y-71130000D01*
X176532000Y-71130000D02*
X176532000Y-72060000D01*
%TO.C,JP4*%
X173681073Y-74836602D02*
X173681073Y-75436602D01*
X172981073Y-76136602D02*
X171481073Y-76136602D01*
X171481073Y-74136602D02*
X172981073Y-74136602D01*
X170781073Y-75436602D02*
X170781073Y-74836602D01*
X172981073Y-76136602D02*
G75*
G03*
X173681073Y-75436602I1J699999D01*
G01*
X173681073Y-74836602D02*
G75*
G03*
X172981073Y-74136602I-699999J1D01*
G01*
X170781078Y-75436602D02*
G75*
G03*
X171481073Y-76136602I699992J-8D01*
G01*
X171481073Y-74136603D02*
G75*
G03*
X170781073Y-74836602I-3J-699997D01*
G01*
%TO.C,R2*%
X170335200Y-70765300D02*
X170335200Y-68765300D01*
X172475200Y-68765300D02*
X172475200Y-70765300D01*
%TO.C,C1*%
X177910000Y-70285000D02*
X175910000Y-70285000D01*
X175910000Y-68145000D02*
X177910000Y-68145000D01*
%TO.C,R1*%
X206264000Y-72265100D02*
X208264000Y-72265100D01*
X208264000Y-74405100D02*
X206264000Y-74405100D01*
%TO.C,JP2*%
X200097073Y-89056702D02*
X200097073Y-89656702D01*
X199397073Y-90356702D02*
X197897073Y-90356702D01*
X197897073Y-88356702D02*
X199397073Y-88356702D01*
X197197073Y-89656702D02*
X197197073Y-89056702D01*
X199397073Y-90356702D02*
G75*
G03*
X200097073Y-89656702I1J699999D01*
G01*
X200097073Y-89056702D02*
G75*
G03*
X199397073Y-88356702I-699999J1D01*
G01*
X197197078Y-89656702D02*
G75*
G03*
X197897073Y-90356702I699992J-8D01*
G01*
X197897073Y-88356703D02*
G75*
G03*
X197197073Y-89056702I-3J-699997D01*
G01*
%TO.C,A1*%
X180165300Y-77767200D02*
X180165300Y-79167200D01*
X180165300Y-80437200D02*
X180165300Y-98347200D01*
X180165300Y-98347200D02*
X195665300Y-98347200D01*
X181565300Y-77767200D02*
X180165300Y-77767200D01*
X182835300Y-77767200D02*
X182835300Y-80437200D01*
X182835300Y-80437200D02*
X180165300Y-80437200D01*
X182835300Y-80437200D02*
X182835300Y-98347200D01*
X192995300Y-77767200D02*
X192995300Y-98347200D01*
X195665300Y-77767200D02*
X182835300Y-77767200D01*
X195665300Y-98347200D02*
X195665300Y-77767200D01*
%TO.C,JP1*%
X200097073Y-94089302D02*
X200097073Y-94689302D01*
X199397073Y-95389302D02*
X197897073Y-95389302D01*
X197897073Y-93389302D02*
X199397073Y-93389302D01*
X197197073Y-94689302D02*
X197197073Y-94089302D01*
X199397073Y-95389302D02*
G75*
G03*
X200097073Y-94689302I1J699999D01*
G01*
X200097073Y-94089302D02*
G75*
G03*
X199397073Y-93389302I-699999J1D01*
G01*
X197197078Y-94689302D02*
G75*
G03*
X197897073Y-95389302I699992J-8D01*
G01*
X197897073Y-93389303D02*
G75*
G03*
X197197073Y-94089302I-3J-699997D01*
G01*
%TO.C,JP3*%
X200097073Y-91549302D02*
X200097073Y-92149302D01*
X199397073Y-92849302D02*
X197897073Y-92849302D01*
X197897073Y-90849302D02*
X199397073Y-90849302D01*
X197197073Y-92149302D02*
X197197073Y-91549302D01*
X199397073Y-92849302D02*
G75*
G03*
X200097073Y-92149302I1J699999D01*
G01*
X200097073Y-91549302D02*
G75*
G03*
X199397073Y-90849302I-699999J1D01*
G01*
X197197078Y-92149302D02*
G75*
G03*
X197897073Y-92849302I699992J-8D01*
G01*
X197897073Y-90849303D02*
G75*
G03*
X197197073Y-91549302I-3J-699997D01*
G01*
%TO.C,J1*%
X198750600Y-68060800D02*
X200190600Y-68060800D01*
X200190600Y-67490800D02*
X200190600Y-68060800D01*
X200190600Y-67490800D02*
X205390600Y-67490800D01*
X200190600Y-69580800D02*
X200190600Y-70600800D01*
X200190600Y-72120800D02*
X200190600Y-72690800D01*
X200190600Y-72690800D02*
X205390600Y-72690800D01*
X205390600Y-67490800D02*
X205390600Y-68060800D01*
X205390600Y-69580800D02*
X205390600Y-70600800D01*
X205390600Y-72120800D02*
X205390600Y-72690800D01*
%TO.C,J3*%
X176290000Y-90160000D02*
X175020000Y-90160000D01*
X171210000Y-90160000D02*
X168670000Y-90160000D01*
X171210000Y-89144000D02*
X173750000Y-89144000D01*
X171210000Y-88636000D02*
X173750000Y-88636000D01*
X171210000Y-86604000D02*
X173750000Y-86604000D01*
X171210000Y-86096000D02*
X173750000Y-86096000D01*
X171210000Y-84064000D02*
X173750000Y-84064000D01*
X171210000Y-83556000D02*
X173750000Y-83556000D01*
X171210000Y-81524000D02*
X173750000Y-81524000D01*
X171210000Y-81016000D02*
X173750000Y-81016000D01*
X171210000Y-80000000D02*
X171210000Y-90160000D01*
X168670000Y-90160000D02*
X168670000Y-80000000D01*
X168670000Y-80000000D02*
X171210000Y-80000000D01*
%TD*%
M02*
