%TF.GenerationSoftware,KiCad,Pcbnew,7.0.1*%
%TF.CreationDate,2024-04-02T19:32:24+05:30*%
%TF.ProjectId,SAMD11_DRV8825_NEM17,53414d44-3131-45f4-9452-56383832355f,rev?*%
%TF.SameCoordinates,Original*%
%TF.FileFunction,Paste,Top*%
%TF.FilePolarity,Positive*%
%FSLAX46Y46*%
G04 Gerber Fmt 4.6, Leading zero omitted, Abs format (unit mm)*
G04 Created by KiCad (PCBNEW 7.0.1) date 2024-04-02 19:32:24*
%MOMM*%
%LPD*%
G01*
G04 APERTURE LIST*
%ADD10R,1.700000X2.000000*%
%ADD11R,2.000000X1.700000*%
%ADD12R,1.700000X2.500000*%
%ADD13R,1.600000X3.200000*%
%ADD14R,2.000000X1.600000*%
%ADD15R,3.200000X1.600000*%
%ADD16R,2.000000X0.600000*%
%ADD17R,1.000000X0.700000*%
%ADD18R,2.000000X1.000000*%
%ADD19R,3.150000X1.000000*%
%ADD20R,2.500000X1.700000*%
G04 APERTURE END LIST*
D10*
%TO.C,C4*%
X187452000Y-82296000D03*
X187452000Y-78296000D03*
%TD*%
D11*
%TO.C,D1*%
X203232000Y-86868000D03*
X207232000Y-86868000D03*
%TD*%
%TO.C,C3*%
X189236800Y-91825500D03*
X185236800Y-91825500D03*
%TD*%
D12*
%TO.C,J4*%
X188976000Y-94855000D03*
X186436000Y-94855000D03*
%TD*%
D13*
%TO.C,J2*%
X186073900Y-73208700D03*
X188613900Y-73208700D03*
X191153900Y-73208700D03*
X193693900Y-73208700D03*
D14*
X183417203Y-70195823D03*
D15*
X183520102Y-60378460D03*
X196209866Y-60374635D03*
D14*
X196220706Y-70186200D03*
%TD*%
D10*
%TO.C,D2*%
X179832000Y-61500000D03*
X179832000Y-65500000D03*
%TD*%
D16*
%TO.C,U1*%
X205171500Y-82748800D03*
X205171500Y-81478800D03*
X205171500Y-80208800D03*
X205171500Y-78938800D03*
X205171500Y-77668800D03*
X205171500Y-76398800D03*
X205171500Y-75128800D03*
X200221500Y-75128800D03*
X200221500Y-76398800D03*
X200221500Y-77668800D03*
X200221500Y-78938800D03*
X200221500Y-80208800D03*
X200221500Y-81478800D03*
X200221500Y-82748800D03*
%TD*%
D11*
%TO.C,C2*%
X179800000Y-76200000D03*
X175800000Y-76200000D03*
%TD*%
D17*
%TO.C,U2*%
X178492000Y-73660000D03*
X178492000Y-71760000D03*
X176092000Y-72710000D03*
%TD*%
D10*
%TO.C,R2*%
X171405200Y-71765300D03*
X171405200Y-67765300D03*
%TD*%
D11*
%TO.C,C1*%
X178910000Y-69215000D03*
X174910000Y-69215000D03*
%TD*%
%TO.C,R1*%
X205264000Y-73335100D03*
X209264000Y-73335100D03*
%TD*%
D18*
%TO.C,A1*%
X183203941Y-79167199D03*
X179903941Y-81707199D03*
X183203941Y-84247199D03*
X179903941Y-86787199D03*
X183203941Y-89327199D03*
X179903941Y-91867199D03*
X183203941Y-94407199D03*
X179903941Y-96947199D03*
X192603941Y-96947199D03*
X195903941Y-94407199D03*
X192603941Y-91867199D03*
X195903941Y-89327199D03*
X192603941Y-86787199D03*
X195903941Y-84247199D03*
X192603941Y-81707199D03*
X195903941Y-79167199D03*
%TD*%
D19*
%TO.C,J1*%
X200265600Y-68820800D03*
X205315600Y-68820800D03*
X200265600Y-71360800D03*
X205315600Y-71360800D03*
%TD*%
D20*
%TO.C,J3*%
X175020000Y-88890000D03*
X175020000Y-86350000D03*
X175020000Y-83810000D03*
X175020000Y-81270000D03*
%TD*%
M02*
